<?xml version="1.0" encoding="UTF-8" standalone="no"?>
<!DOCTYPE svg PUBLIC "-//W3C//DTD SVG 1.1//EN"
 "http://www.w3.org/Graphics/SVG/1.1/DTD/svg11.dtd">
<!-- Generated by graphviz version 2.47.3 (20210619.1520)
 -->
<!-- Title: dependencies Pages: 1 -->
<svg width="566pt" height="174pt"
 viewBox="0.00 0.00 566.00 173.80" xmlns="http://www.w3.org/2000/svg" xmlns:xlink="http://www.w3.org/1999/xlink">
<g id="graph0" class="graph" transform="scale(1 1) rotate(0) translate(4 169.8)">
<title>dependencies</title>
<polygon fill="white" stroke="transparent" points="-4,4 -4,-169.8 562,-169.8 562,4 -4,4"/>
<text text-anchor="middle" x="279" y="-8.2" font-family="sans-serif" font-size="14.00">dependencies</text>
<g id="clust1" class="cluster">
<title>cluster_AuthModule</title>
<polygon fill="none" stroke="black" stroke-dasharray="1,5" points="8,-32.8 8,-157.8 550,-157.8 550,-32.8 8,-32.8"/>
</g>
<g id="clust3" class="cluster">
<title>cluster_AuthModule_imports</title>
<polygon fill="none" stroke="black" points="290,-40.8 290,-92.8 542,-92.8 542,-40.8 290,-40.8"/>
</g>
<g id="clust6" class="cluster">
<title>cluster_AuthModule_providers</title>
<polygon fill="none" stroke="black" points="16,-40.8 16,-92.8 282,-92.8 282,-40.8 16,-40.8"/>
</g>
<!-- StudentsModule -->
<g id="node1" class="node">
<title>StudentsModule</title>
<polygon fill="#8dd3c7" stroke="black" points="533.77,-84.8 530.77,-88.8 509.77,-88.8 506.77,-84.8 426.23,-84.8 426.23,-48.8 533.77,-48.8 533.77,-84.8"/>
<text text-anchor="middle" x="480" y="-62.6" font-family="Times,serif" font-size="14.00">StudentsModule</text>
</g>
<!-- AuthModule -->
<g id="node3" class="node">
<title>AuthModule</title>
<polygon fill="#8dd3c7" stroke="black" points="327.55,-149.8 324.55,-153.8 303.55,-153.8 300.55,-149.8 240.45,-149.8 240.45,-113.8 327.55,-113.8 327.55,-149.8"/>
<text text-anchor="middle" x="284" y="-127.6" font-family="Times,serif" font-size="14.00">AuthModule</text>
</g>
<!-- StudentsModule&#45;&gt;AuthModule -->
<g id="edge1" class="edge">
<title>StudentsModule&#45;&gt;AuthModule</title>
<path fill="none" stroke="black" d="M480,-84.91C480,-104.14 480,-131.8 480,-131.8 480,-131.8 337.99,-131.8 337.99,-131.8"/>
<polygon fill="black" stroke="black" points="337.99,-128.3 327.99,-131.8 337.99,-135.3 337.99,-128.3"/>
</g>
<!-- TeachersModule -->
<g id="node2" class="node">
<title>TeachersModule</title>
<polygon fill="#8dd3c7" stroke="black" points="408.07,-84.8 405.07,-88.8 384.07,-88.8 381.07,-84.8 297.93,-84.8 297.93,-48.8 408.07,-48.8 408.07,-84.8"/>
<text text-anchor="middle" x="353" y="-62.6" font-family="Times,serif" font-size="14.00">TeachersModule</text>
</g>
<!-- TeachersModule&#45;&gt;AuthModule -->
<g id="edge2" class="edge">
<title>TeachersModule&#45;&gt;AuthModule</title>
<path fill="none" stroke="black" d="M312.87,-84.91C312.87,-84.91 312.87,-103.79 312.87,-103.79"/>
<polygon fill="black" stroke="black" points="309.37,-103.79 312.87,-113.79 316.37,-103.79 309.37,-103.79"/>
</g>
<!-- AuthService -->
<g id="node4" class="node">
<title>AuthService</title>
<ellipse fill="#fdb462" stroke="black" cx="215" cy="-66.8" rx="59.11" ry="18"/>
<text text-anchor="middle" x="215" y="-62.6" font-family="Times,serif" font-size="14.00">AuthService</text>
</g>
<!-- AuthService&#45;&gt;AuthModule -->
<g id="edge3" class="edge">
<title>AuthService&#45;&gt;AuthModule</title>
<path fill="none" stroke="black" d="M257.27,-79.64C257.27,-79.64 257.27,-103.32 257.27,-103.32"/>
<polygon fill="black" stroke="black" points="253.77,-103.32 257.27,-113.32 260.77,-103.32 253.77,-103.32"/>
</g>
<!-- JwtStrategy -->
<g id="node5" class="node">
<title>JwtStrategy</title>
<ellipse fill="#fdb462" stroke="black" cx="81" cy="-66.8" rx="56.76" ry="18"/>
<text text-anchor="middle" x="81" y="-62.6" font-family="Times,serif" font-size="14.00">JwtStrategy</text>
</g>
<!-- JwtStrategy&#45;&gt;AuthModule -->
<g id="edge4" class="edge">
<title>JwtStrategy&#45;&gt;AuthModule</title>
<path fill="none" stroke="black" d="M81,-84.91C81,-104.14 81,-131.8 81,-131.8 81,-131.8 230.45,-131.8 230.45,-131.8"/>
<polygon fill="black" stroke="black" points="230.45,-135.3 240.45,-131.8 230.45,-128.3 230.45,-135.3"/>
</g>
</g>
</svg>
