<?xml version="1.0" encoding="UTF-8" standalone="no"?>
<!DOCTYPE svg PUBLIC "-//W3C//DTD SVG 1.1//EN"
 "http://www.w3.org/Graphics/SVG/1.1/DTD/svg11.dtd">
<!-- Generated by graphviz version 2.47.3 (20210619.1520)
 -->
<!-- Title: dependencies Pages: 1 -->
<svg width="640pt" height="174pt"
 viewBox="0.00 0.00 640.00 173.80" xmlns="http://www.w3.org/2000/svg" xmlns:xlink="http://www.w3.org/1999/xlink">
<g id="graph0" class="graph" transform="scale(1 1) rotate(0) translate(4 169.8)">
<title>dependencies</title>
<polygon fill="white" stroke="transparent" points="-4,4 -4,-169.8 636,-169.8 636,4 -4,4"/>
<text text-anchor="middle" x="316" y="-8.2" font-family="sans-serif" font-size="14.00">dependencies</text>
<g id="clust1" class="cluster">
<title>cluster_AppModule</title>
<polygon fill="none" stroke="black" stroke-dasharray="1,5" points="8,-32.8 8,-157.8 624,-157.8 624,-32.8 8,-32.8"/>
</g>
<g id="clust3" class="cluster">
<title>cluster_AppModule_imports</title>
<polygon fill="none" stroke="black" points="154,-40.8 154,-92.8 616,-92.8 616,-40.8 154,-40.8"/>
</g>
<g id="clust6" class="cluster">
<title>cluster_AppModule_providers</title>
<polygon fill="none" stroke="black" points="16,-40.8 16,-92.8 146,-92.8 146,-40.8 16,-40.8"/>
</g>
<!-- AuthModule -->
<g id="node1" class="node">
<title>AuthModule</title>
<polygon fill="#8dd3c7" stroke="black" points="607.55,-84.8 604.55,-88.8 583.55,-88.8 580.55,-84.8 520.45,-84.8 520.45,-48.8 607.55,-48.8 607.55,-84.8"/>
<text text-anchor="middle" x="564" y="-62.6" font-family="Times,serif" font-size="14.00">AuthModule</text>
</g>
<!-- AppModule -->
<g id="node5" class="node">
<title>AppModule</title>
<polygon fill="#8dd3c7" stroke="black" points="385.66,-149.8 382.66,-153.8 361.66,-153.8 358.66,-149.8 302.34,-149.8 302.34,-113.8 385.66,-113.8 385.66,-149.8"/>
<text text-anchor="middle" x="344" y="-127.6" font-family="Times,serif" font-size="14.00">AppModule</text>
</g>
<!-- AuthModule&#45;&gt;AppModule -->
<g id="edge1" class="edge">
<title>AuthModule&#45;&gt;AppModule</title>
<path fill="none" stroke="black" d="M564,-85.08C564,-106.12 564,-137.8 564,-137.8 564,-137.8 395.9,-137.8 395.9,-137.8"/>
<polygon fill="black" stroke="black" points="395.9,-134.3 385.9,-137.8 395.9,-141.3 395.9,-134.3"/>
</g>
<!-- QuizModule -->
<g id="node2" class="node">
<title>QuizModule</title>
<polygon fill="#8dd3c7" stroke="black" points="502.26,-84.8 499.26,-88.8 478.26,-88.8 475.26,-84.8 415.74,-84.8 415.74,-48.8 502.26,-48.8 502.26,-84.8"/>
<text text-anchor="middle" x="459" y="-62.6" font-family="Times,serif" font-size="14.00">QuizModule</text>
</g>
<!-- QuizModule&#45;&gt;AppModule -->
<g id="edge2" class="edge">
<title>QuizModule&#45;&gt;AppModule</title>
<path fill="none" stroke="black" d="M459,-84.82C459,-102.17 459,-125.8 459,-125.8 459,-125.8 395.84,-125.8 395.84,-125.8"/>
<polygon fill="black" stroke="black" points="395.84,-122.3 385.84,-125.8 395.84,-129.3 395.84,-122.3"/>
</g>
<!-- StudentsModule -->
<g id="node3" class="node">
<title>StudentsModule</title>
<polygon fill="#8dd3c7" stroke="black" points="397.77,-84.8 394.77,-88.8 373.77,-88.8 370.77,-84.8 290.23,-84.8 290.23,-48.8 397.77,-48.8 397.77,-84.8"/>
<text text-anchor="middle" x="344" y="-62.6" font-family="Times,serif" font-size="14.00">StudentsModule</text>
</g>
<!-- StudentsModule&#45;&gt;AppModule -->
<g id="edge3" class="edge">
<title>StudentsModule&#45;&gt;AppModule</title>
<path fill="none" stroke="black" d="M344,-84.91C344,-84.91 344,-103.79 344,-103.79"/>
<polygon fill="black" stroke="black" points="340.5,-103.79 344,-113.79 347.5,-103.79 340.5,-103.79"/>
</g>
<!-- TeachersModule -->
<g id="node4" class="node">
<title>TeachersModule</title>
<polygon fill="#8dd3c7" stroke="black" points="272.07,-84.8 269.07,-88.8 248.07,-88.8 245.07,-84.8 161.93,-84.8 161.93,-48.8 272.07,-48.8 272.07,-84.8"/>
<text text-anchor="middle" x="217" y="-62.6" font-family="Times,serif" font-size="14.00">TeachersModule</text>
</g>
<!-- TeachersModule&#45;&gt;AppModule -->
<g id="edge4" class="edge">
<title>TeachersModule&#45;&gt;AppModule</title>
<path fill="none" stroke="black" d="M217,-84.82C217,-102.17 217,-125.8 217,-125.8 217,-125.8 292.06,-125.8 292.06,-125.8"/>
<polygon fill="black" stroke="black" points="292.06,-129.3 302.06,-125.8 292.06,-122.3 292.06,-129.3"/>
</g>
<!-- AppService -->
<g id="node6" class="node">
<title>AppService</title>
<ellipse fill="#fdb462" stroke="black" cx="81" cy="-66.8" rx="56.74" ry="18"/>
<text text-anchor="middle" x="81" y="-62.6" font-family="Times,serif" font-size="14.00">AppService</text>
</g>
<!-- AppService&#45;&gt;AppModule -->
<g id="edge5" class="edge">
<title>AppService&#45;&gt;AppModule</title>
<path fill="none" stroke="black" d="M81,-85.08C81,-106.12 81,-137.8 81,-137.8 81,-137.8 292.33,-137.8 292.33,-137.8"/>
<polygon fill="black" stroke="black" points="292.33,-141.3 302.33,-137.8 292.33,-134.3 292.33,-141.3"/>
</g>
</g>
</svg>
