<?xml version="1.0" encoding="UTF-8" standalone="no"?>
<!DOCTYPE svg PUBLIC "-//W3C//DTD SVG 1.1//EN"
 "http://www.w3.org/Graphics/SVG/1.1/DTD/svg11.dtd">
<!-- Generated by graphviz version 2.47.3 (20210619.1520)
 -->
<!-- Title: dependencies Pages: 1 -->
<svg width="536pt" height="174pt"
 viewBox="0.00 0.00 536.00 173.80" xmlns="http://www.w3.org/2000/svg" xmlns:xlink="http://www.w3.org/1999/xlink">
<g id="graph0" class="graph" transform="scale(1 1) rotate(0) translate(4 169.8)">
<title>dependencies</title>
<polygon fill="white" stroke="transparent" points="-4,4 -4,-169.8 532,-169.8 532,4 -4,4"/>
<text text-anchor="middle" x="264" y="-8.2" font-family="sans-serif" font-size="14.00">dependencies</text>
<g id="clust1" class="cluster">
<title>cluster_AppModule</title>
<polygon fill="none" stroke="black" stroke-dasharray="1,5" points="8,-32.8 8,-157.8 520,-157.8 520,-32.8 8,-32.8"/>
</g>
<g id="clust3" class="cluster">
<title>cluster_AppModule_imports</title>
<polygon fill="none" stroke="black" points="154,-40.8 154,-92.8 512,-92.8 512,-40.8 154,-40.8"/>
</g>
<g id="clust6" class="cluster">
<title>cluster_AppModule_providers</title>
<polygon fill="none" stroke="black" points="16,-40.8 16,-92.8 146,-92.8 146,-40.8 16,-40.8"/>
</g>
<!-- AuthModule -->
<g id="node1" class="node">
<title>AuthModule</title>
<polygon fill="#8dd3c7" stroke="black" points="503.55,-84.8 500.55,-88.8 479.55,-88.8 476.55,-84.8 416.45,-84.8 416.45,-48.8 503.55,-48.8 503.55,-84.8"/>
<text text-anchor="middle" x="460" y="-62.6" font-family="Times,serif" font-size="14.00">AuthModule</text>
</g>
<!-- AppModule -->
<g id="node4" class="node">
<title>AppModule</title>
<polygon fill="#8dd3c7" stroke="black" points="321.66,-149.8 318.66,-153.8 297.66,-153.8 294.66,-149.8 238.34,-149.8 238.34,-113.8 321.66,-113.8 321.66,-149.8"/>
<text text-anchor="middle" x="280" y="-127.6" font-family="Times,serif" font-size="14.00">AppModule</text>
</g>
<!-- AuthModule&#45;&gt;AppModule -->
<g id="edge1" class="edge">
<title>AuthModule&#45;&gt;AppModule</title>
<path fill="none" stroke="black" d="M460,-84.91C460,-104.14 460,-131.8 460,-131.8 460,-131.8 331.75,-131.8 331.75,-131.8"/>
<polygon fill="black" stroke="black" points="331.75,-128.3 321.75,-131.8 331.75,-135.3 331.75,-128.3"/>
</g>
<!-- StudentsModule -->
<g id="node2" class="node">
<title>StudentsModule</title>
<polygon fill="#8dd3c7" stroke="black" points="397.77,-84.8 394.77,-88.8 373.77,-88.8 370.77,-84.8 290.23,-84.8 290.23,-48.8 397.77,-48.8 397.77,-84.8"/>
<text text-anchor="middle" x="344" y="-62.6" font-family="Times,serif" font-size="14.00">StudentsModule</text>
</g>
<!-- StudentsModule&#45;&gt;AppModule -->
<g id="edge2" class="edge">
<title>StudentsModule&#45;&gt;AppModule</title>
<path fill="none" stroke="black" d="M305.97,-84.91C305.97,-84.91 305.97,-103.79 305.97,-103.79"/>
<polygon fill="black" stroke="black" points="302.47,-103.79 305.97,-113.79 309.47,-103.79 302.47,-103.79"/>
</g>
<!-- TeachersModule -->
<g id="node3" class="node">
<title>TeachersModule</title>
<polygon fill="#8dd3c7" stroke="black" points="272.07,-84.8 269.07,-88.8 248.07,-88.8 245.07,-84.8 161.93,-84.8 161.93,-48.8 272.07,-48.8 272.07,-84.8"/>
<text text-anchor="middle" x="217" y="-62.6" font-family="Times,serif" font-size="14.00">TeachersModule</text>
</g>
<!-- TeachersModule&#45;&gt;AppModule -->
<g id="edge3" class="edge">
<title>TeachersModule&#45;&gt;AppModule</title>
<path fill="none" stroke="black" d="M255.1,-84.91C255.1,-84.91 255.1,-103.79 255.1,-103.79"/>
<polygon fill="black" stroke="black" points="251.6,-103.79 255.1,-113.79 258.6,-103.79 251.6,-103.79"/>
</g>
<!-- AppService -->
<g id="node5" class="node">
<title>AppService</title>
<ellipse fill="#fdb462" stroke="black" cx="81" cy="-66.8" rx="56.74" ry="18"/>
<text text-anchor="middle" x="81" y="-62.6" font-family="Times,serif" font-size="14.00">AppService</text>
</g>
<!-- AppService&#45;&gt;AppModule -->
<g id="edge4" class="edge">
<title>AppService&#45;&gt;AppModule</title>
<path fill="none" stroke="black" d="M81,-84.91C81,-104.14 81,-131.8 81,-131.8 81,-131.8 228.28,-131.8 228.28,-131.8"/>
<polygon fill="black" stroke="black" points="228.28,-135.3 238.28,-131.8 228.28,-128.3 228.28,-135.3"/>
</g>
</g>
</svg>
