<?xml version="1.0" encoding="UTF-8" standalone="no"?>
<!DOCTYPE svg PUBLIC "-//W3C//DTD SVG 1.1//EN"
 "http://www.w3.org/Graphics/SVG/1.1/DTD/svg11.dtd">
<!-- Generated by graphviz version 2.47.3 (20210619.1520)
 -->
<!-- Title: dependencies Pages: 1 -->
<svg width="1366pt" height="250pt"
 viewBox="0.00 0.00 1366.00 249.80" xmlns="http://www.w3.org/2000/svg" xmlns:xlink="http://www.w3.org/1999/xlink">
<g id="graph0" class="graph" transform="scale(1 1) rotate(0) translate(4 245.8)">
<title>dependencies</title>
<polygon fill="white" stroke="transparent" points="-4,4 -4,-245.8 1362,-245.8 1362,4 -4,4"/>
<text text-anchor="middle" x="679" y="-8.2" font-family="sans-serif" font-size="14.00">dependencies</text>
<g id="clust1" class="cluster">
<title>cluster_AppModule</title>
<polygon fill="none" stroke="black" stroke-dasharray="1,5" points="298,-32.8 298,-233.8 704,-233.8 704,-32.8 298,-32.8"/>
</g>
<g id="clust3" class="cluster">
<title>cluster_AppModule_imports</title>
<polygon fill="none" stroke="black" points="444,-40.8 444,-168.8 696,-168.8 696,-40.8 444,-40.8"/>
</g>
<g id="clust6" class="cluster">
<title>cluster_AppModule_providers</title>
<polygon fill="none" stroke="black" points="306,-116.8 306,-168.8 436,-168.8 436,-116.8 306,-116.8"/>
</g>
<g id="clust7" class="cluster">
<title>cluster_AuthModule</title>
<polygon fill="none" stroke="black" stroke-dasharray="1,5" points="8,-32.8 8,-100.8 290,-100.8 290,-32.8 8,-32.8"/>
</g>
<g id="clust12" class="cluster">
<title>cluster_AuthModule_providers</title>
<polygon fill="none" stroke="black" points="16,-40.8 16,-92.8 282,-92.8 282,-40.8 16,-40.8"/>
</g>
<g id="clust13" class="cluster">
<title>cluster_StudentsModule</title>
<polygon fill="none" stroke="black" stroke-dasharray="1,5" points="712,-108.8 712,-176.8 1024,-176.8 1024,-108.8 712,-108.8"/>
</g>
<g id="clust16" class="cluster">
<title>cluster_StudentsModule_exports</title>
<polygon fill="none" stroke="black" points="890,-116.8 890,-168.8 1016,-168.8 1016,-116.8 890,-116.8"/>
</g>
<g id="clust18" class="cluster">
<title>cluster_StudentsModule_providers</title>
<polygon fill="none" stroke="black" points="720,-116.8 720,-168.8 882,-168.8 882,-116.8 720,-116.8"/>
</g>
<g id="clust19" class="cluster">
<title>cluster_TeachersModule</title>
<polygon fill="none" stroke="black" stroke-dasharray="1,5" points="1032,-108.8 1032,-176.8 1350,-176.8 1350,-108.8 1032,-108.8"/>
</g>
<g id="clust22" class="cluster">
<title>cluster_TeachersModule_exports</title>
<polygon fill="none" stroke="black" points="1214,-116.8 1214,-168.8 1342,-168.8 1342,-116.8 1214,-116.8"/>
</g>
<g id="clust24" class="cluster">
<title>cluster_TeachersModule_providers</title>
<polygon fill="none" stroke="black" points="1040,-116.8 1040,-168.8 1206,-168.8 1206,-116.8 1040,-116.8"/>
</g>
<!-- AuthModule -->
<g id="node1" class="node">
<title>AuthModule</title>
<polygon fill="#8dd3c7" stroke="black" points="539.55,-160.8 536.55,-164.8 515.55,-164.8 512.55,-160.8 452.45,-160.8 452.45,-124.8 539.55,-124.8 539.55,-160.8"/>
<text text-anchor="middle" x="496" y="-138.6" font-family="Times,serif" font-size="14.00">AuthModule</text>
</g>
<!-- AppModule -->
<g id="node4" class="node">
<title>AppModule</title>
<polygon fill="#8dd3c7" stroke="black" points="568.66,-225.8 565.66,-229.8 544.66,-229.8 541.66,-225.8 485.34,-225.8 485.34,-189.8 568.66,-189.8 568.66,-225.8"/>
<text text-anchor="middle" x="527" y="-203.6" font-family="Times,serif" font-size="14.00">AppModule</text>
</g>
<!-- AuthModule&#45;&gt;AppModule -->
<g id="edge1" class="edge">
<title>AuthModule&#45;&gt;AppModule</title>
<path fill="none" stroke="black" d="M512.47,-160.91C512.47,-160.91 512.47,-179.79 512.47,-179.79"/>
<polygon fill="black" stroke="black" points="508.97,-179.79 512.47,-189.79 515.97,-179.79 508.97,-179.79"/>
</g>
<!-- StudentsModule -->
<g id="node2" class="node">
<title>StudentsModule</title>
<polygon fill="#8dd3c7" stroke="black" points="559.77,-84.8 556.77,-88.8 535.77,-88.8 532.77,-84.8 452.23,-84.8 452.23,-48.8 559.77,-48.8 559.77,-84.8"/>
<text text-anchor="middle" x="506" y="-62.6" font-family="Times,serif" font-size="14.00">StudentsModule</text>
</g>
<!-- StudentsModule&#45;&gt;AuthModule -->
<g id="edge5" class="edge">
<title>StudentsModule&#45;&gt;AuthModule</title>
<path fill="none" stroke="black" d="M510.59,-84.81C510.59,-84.81 510.59,-114.65 510.59,-114.65"/>
<polygon fill="black" stroke="black" points="507.09,-114.65 510.59,-124.65 514.09,-114.65 507.09,-114.65"/>
</g>
<!-- StudentsModule&#45;&gt;AppModule -->
<g id="edge2" class="edge">
<title>StudentsModule&#45;&gt;AppModule</title>
<path fill="none" stroke="black" d="M549.83,-84.94C549.83,-84.94 549.83,-179.73 549.83,-179.73"/>
<polygon fill="black" stroke="black" points="546.33,-179.72 549.83,-189.73 553.33,-179.73 546.33,-179.72"/>
</g>
<!-- StudentsService  -->
<g id="node8" class="node">
<title>StudentsService </title>
<polygon fill="#fb8072" stroke="black" points="1007.7,-160.8 898.3,-160.8 898.3,-124.8 1007.7,-124.8 1007.7,-160.8"/>
<text text-anchor="middle" x="953" y="-138.6" font-family="Times,serif" font-size="14.00">StudentsService </text>
</g>
<!-- StudentsModule&#45;&gt;StudentsService  -->
<g id="edge9" class="edge">
<title>StudentsModule&#45;&gt;StudentsService </title>
<path fill="none" stroke="black" stroke-dasharray="5,2" d="M544.8,-85.04C544.8,-92.23 544.8,-98.8 544.8,-98.8 544.8,-98.8 953,-98.8 953,-98.8 953,-98.8 953,-114.65 953,-114.65"/>
<polygon fill="black" stroke="black" points="949.5,-114.65 953,-124.65 956.5,-114.65 949.5,-114.65"/>
</g>
<!-- TeachersModule -->
<g id="node3" class="node">
<title>TeachersModule</title>
<polygon fill="#8dd3c7" stroke="black" points="688.07,-84.8 685.07,-88.8 664.07,-88.8 661.07,-84.8 577.93,-84.8 577.93,-48.8 688.07,-48.8 688.07,-84.8"/>
<text text-anchor="middle" x="633" y="-62.6" font-family="Times,serif" font-size="14.00">TeachersModule</text>
</g>
<!-- TeachersModule&#45;&gt;AuthModule -->
<g id="edge6" class="edge">
<title>TeachersModule&#45;&gt;AuthModule</title>
<path fill="none" stroke="black" d="M633,-84.83C633,-105.57 633,-136.8 633,-136.8 633,-136.8 549.72,-136.8 549.72,-136.8"/>
<polygon fill="black" stroke="black" points="549.72,-133.3 539.72,-136.8 549.72,-140.3 549.72,-133.3"/>
</g>
<!-- TeachersModule&#45;&gt;AppModule -->
<g id="edge3" class="edge">
<title>TeachersModule&#45;&gt;AppModule</title>
<path fill="none" stroke="black" d="M577.92,-66.8C569.94,-66.8 564.36,-66.8 564.36,-66.8 564.36,-66.8 564.36,-179.66 564.36,-179.66"/>
<polygon fill="black" stroke="black" points="560.86,-179.66 564.36,-189.66 567.86,-179.66 560.86,-179.66"/>
</g>
<!-- TeachersService  -->
<g id="node10" class="node">
<title>TeachersService </title>
<polygon fill="#fb8072" stroke="black" points="1333.99,-160.8 1222.01,-160.8 1222.01,-124.8 1333.99,-124.8 1333.99,-160.8"/>
<text text-anchor="middle" x="1278" y="-138.6" font-family="Times,serif" font-size="14.00">TeachersService </text>
</g>
<!-- TeachersModule&#45;&gt;TeachersService  -->
<g id="edge11" class="edge">
<title>TeachersModule&#45;&gt;TeachersService </title>
<path fill="none" stroke="black" stroke-dasharray="5,2" d="M688.27,-60.8C844.49,-60.8 1278,-60.8 1278,-60.8 1278,-60.8 1278,-114.6 1278,-114.6"/>
<polygon fill="black" stroke="black" points="1274.5,-114.6 1278,-124.6 1281.5,-114.6 1274.5,-114.6"/>
</g>
<!-- AppService -->
<g id="node5" class="node">
<title>AppService</title>
<ellipse fill="#fdb462" stroke="black" cx="371" cy="-142.8" rx="56.74" ry="18"/>
<text text-anchor="middle" x="371" y="-138.6" font-family="Times,serif" font-size="14.00">AppService</text>
</g>
<!-- AppService&#45;&gt;AppModule -->
<g id="edge4" class="edge">
<title>AppService&#45;&gt;AppModule</title>
<path fill="none" stroke="black" d="M371,-160.91C371,-180.14 371,-207.8 371,-207.8 371,-207.8 475.19,-207.8 475.19,-207.8"/>
<polygon fill="black" stroke="black" points="475.19,-211.3 485.19,-207.8 475.19,-204.3 475.19,-211.3"/>
</g>
<!-- AuthService -->
<g id="node6" class="node">
<title>AuthService</title>
<ellipse fill="#fdb462" stroke="black" cx="215" cy="-66.8" rx="59.11" ry="18"/>
<text text-anchor="middle" x="215" y="-62.6" font-family="Times,serif" font-size="14.00">AuthService</text>
</g>
<!-- AuthService&#45;&gt;AuthModule -->
<g id="edge7" class="edge">
<title>AuthService&#45;&gt;AuthModule</title>
<path fill="none" stroke="black" d="M274.38,-66.8C341,-66.8 439.87,-66.8 439.87,-66.8 439.87,-66.8 439.87,-142.8 439.87,-142.8 439.87,-142.8 442.32,-142.8 442.32,-142.8"/>
<polygon fill="black" stroke="black" points="442.32,-146.3 452.32,-142.8 442.32,-139.3 442.32,-146.3"/>
</g>
<!-- JwtStrategy -->
<g id="node7" class="node">
<title>JwtStrategy</title>
<ellipse fill="#fdb462" stroke="black" cx="81" cy="-66.8" rx="56.76" ry="18"/>
<text text-anchor="middle" x="81" y="-62.6" font-family="Times,serif" font-size="14.00">JwtStrategy</text>
</g>
<!-- JwtStrategy&#45;&gt;AuthModule -->
<g id="edge8" class="edge">
<title>JwtStrategy&#45;&gt;AuthModule</title>
<path fill="none" stroke="black" d="M81,-84.84C81,-97.36 81,-111.8 81,-111.8 81,-111.8 481.41,-111.8 481.41,-111.8 481.41,-111.8 481.41,-114.77 481.41,-114.77"/>
<polygon fill="black" stroke="black" points="477.91,-114.77 481.41,-124.77 484.91,-114.77 477.91,-114.77"/>
</g>
<!-- StudentsService -->
<g id="node9" class="node">
<title>StudentsService</title>
<ellipse fill="#fdb462" stroke="black" cx="801" cy="-142.8" rx="73.01" ry="18"/>
<text text-anchor="middle" x="801" y="-138.6" font-family="Times,serif" font-size="14.00">StudentsService</text>
</g>
<!-- StudentsService&#45;&gt;StudentsModule -->
<g id="edge10" class="edge">
<title>StudentsService&#45;&gt;StudentsModule</title>
<path fill="none" stroke="black" d="M731.78,-148.8C658.98,-148.8 554.86,-148.8 554.86,-148.8 554.86,-148.8 554.86,-95 554.86,-95"/>
<polygon fill="black" stroke="black" points="558.36,-95 554.86,-85 551.36,-95 558.36,-95"/>
</g>
<!-- TeachersService -->
<g id="node11" class="node">
<title>TeachersService</title>
<ellipse fill="#fdb462" stroke="black" cx="1123" cy="-142.8" rx="74.67" ry="18"/>
<text text-anchor="middle" x="1123" y="-138.6" font-family="Times,serif" font-size="14.00">TeachersService</text>
</g>
<!-- TeachersService&#45;&gt;TeachersModule -->
<g id="edge12" class="edge">
<title>TeachersService&#45;&gt;TeachersModule</title>
<path fill="none" stroke="black" d="M1123,-124.77C1123,-104.03 1123,-72.8 1123,-72.8 1123,-72.8 698.26,-72.8 698.26,-72.8"/>
<polygon fill="black" stroke="black" points="698.26,-69.3 688.26,-72.8 698.26,-76.3 698.26,-69.3"/>
</g>
</g>
</svg>
